<?xml version="1.0" standalone="no"?><!DOCTYPE svg PUBLIC "-//W3C//DTD SVG 1.1//EN" "http://www.w3.org/Graphics/SVG/1.1/DTD/svg11.dtd"><svg t="1734321245274" class="icon" viewBox="0 0 1024 1024" version="1.1" xmlns="http://www.w3.org/2000/svg" p-id="125828" xmlns:xlink="http://www.w3.org/1999/xlink" width="200" height="200"><path d="M898.7 308.2c-46.6 0-71.7-16.9-91.9-30.5-17.9-12.1-32.1-21.6-62.8-21.6s-44.9 9.5-62.8 21.6c-20.2 13.6-45.3 30.5-91.9 30.5-46.6 0-71.7-16.9-91.9-30.5-17.9-12.1-32.1-21.6-62.8-21.6-30.7 0-44.9 9.5-62.8 21.6-20.2 13.6-45.3 30.5-91.9 30.5s-71.7-16.9-91.9-30.5c-17.9-12.1-32.1-21.6-62.8-21.6-14.4 0-26-11.6-26-26s11.6-26 26-26c46.6 0 71.7 16.9 91.9 30.5 17.9 12.1 32.1 21.6 62.8 21.6 30.7 0 44.9-9.5 62.8-21.6 20.2-13.6 45.3-30.5 91.9-30.5 46.6 0 71.7 16.9 91.9 30.5 17.9 12.1 32.1 21.6 62.8 21.6 30.7 0 44.9-9.5 62.8-21.6 20.2-13.6 45.3-30.5 91.9-30.5s71.7 16.9 91.9 30.5c17.9 12.1 32.1 21.6 62.8 21.6 14.4 0 26 11.6 26 26s-11.6 26-26 26zM898.7 838.7c-46.6 0-71.7-16.9-91.9-30.5-17.9-12.1-32.1-21.6-62.8-21.6s-44.9 9.5-62.8 21.6c-20.2 13.6-45.3 30.5-91.9 30.5-46.6 0-71.7-16.9-91.9-30.5-17.9-12.1-32.1-21.6-62.8-21.6-30.7 0-44.9 9.5-62.8 21.6-20.2 13.6-45.3 30.5-91.9 30.5s-71.7-16.9-91.9-30.5c-17.9-12.1-32.1-21.6-62.8-21.6-14.4 0-26-11.6-26-26s11.6-26 26-26c46.6 0 71.7 16.9 91.9 30.5 17.9 12.1 32.1 21.6 62.8 21.6 30.7 0 44.9-9.5 62.8-21.6 20.2-13.6 45.3-30.5 91.9-30.5 46.6 0 71.7 16.9 91.9 30.5 17.9 12.1 32.1 21.6 62.8 21.6 30.7 0 44.9-9.5 62.8-21.6 20.2-13.6 45.3-30.5 91.9-30.5s71.7 16.9 91.9 30.5c17.9 12.1 32.1 21.6 62.8 21.6 14.4 0 26 11.6 26 26s-11.6 26-26 26zM898.7 573.5c-46.6 0-71.7-16.9-91.9-30.5-17.9-12.1-32.1-21.6-62.8-21.6s-44.9 9.5-62.8 21.6c-20.2 13.6-45.3 30.5-91.9 30.5-46.6 0-71.7-16.9-91.9-30.5-17.9-12.1-32.1-21.6-62.8-21.6-30.7 0-44.9 9.5-62.8 21.6-20.2 13.6-45.3 30.5-91.9 30.5S208.2 556.6 188 543c-17.9-12.1-32.1-21.6-62.8-21.6-14.4 0-26-11.6-26-26s11.6-26 26-26c46.6 0 71.7 16.9 91.9 30.5 17.9 12.1 32.1 21.6 62.8 21.6 30.7 0 44.9-9.5 62.8-21.6 20.2-13.6 45.3-30.5 91.9-30.5 46.6 0 71.7 16.9 91.9 30.5 17.9 12.1 32.1 21.6 62.8 21.6 30.7 0 44.9-9.5 62.8-21.6 20.2-13.6 45.3-30.5 91.9-30.5s71.7 16.9 91.9 30.5c17.9 12.1 32.1 21.6 62.8 21.6 14.4 0 26 11.6 26 26s-11.6 26-26 26z" p-id="125829" fill="#7dc5eb"></path></svg>