<?xml version="1.0" standalone="no"?><!DOCTYPE svg PUBLIC "-//W3C//DTD SVG 1.1//EN" "http://www.w3.org/Graphics/SVG/1.1/DTD/svg11.dtd"><svg t="1734318630171" class="icon" viewBox="0 0 1024 1024" version="1.1" xmlns="http://www.w3.org/2000/svg" p-id="39681" xmlns:xlink="http://www.w3.org/1999/xlink" width="200" height="200"><path d="M460.670598 327.818029l-75.053075-43.996631-75.915754 43.996631v-173.398484h150.968829zM825.583825 750.53075h-431.339512c-13.802864 0-25.017692-11.214827-25.017691-25.017692v-2.588037c0-13.802864 11.214827-25.017692 25.017691-25.017692h431.339512c13.802864 0 25.017692 11.214827 25.017691 25.017692v2.588037c-0.862679 13.802864-11.214827 25.017692-25.017691 25.017692zM653.910699 659.949452h-259.666386c-13.802864 0-25.017692-11.214827-25.017691-25.017691v-2.588037c0-13.802864 11.214827-25.017692 25.017691-25.017692h259.666386c13.802864 0 25.017692 11.214827 25.017692 25.017692v2.588037c0 13.802864-11.214827 25.017692-25.017692 25.017691zM653.910699 569.368155h-259.666386c-13.802864 0-25.017692-11.214827-25.017691-25.017692v-2.588037c0-13.802864 11.214827-25.017692 25.017691-25.017691h259.666386c13.802864 0 25.017692 11.214827 25.017692 25.017691v2.588037c0 13.802864-11.214827 25.017692-25.017692 25.017692z" fill="#C4C4C4" p-id="39682"></path><path d="M802.291491 799.703454v18.978939c0 28.468408-18.978939 50.035383-48.310025 50.035383H267.430497c-28.468408 0-51.760741-21.566976-51.760741-50.035383v-611.639428c0-28.468408 23.292334-54.348778 51.760741-54.348778h486.550969c28.468408 0 48.310025 25.017692 48.310025 54.348778V747.942713h51.760742v-540.899748c0-56.936816-42.271272-106.10952-99.208088-106.109519H267.430497c-56.936816 0-103.521483 49.172704-103.521483 106.109519v612.502107c0 56.936816 46.584667 100.933446 103.521483 100.933445h487.413648c56.936816 0 99.208088-43.99663 99.208088-100.933445V799.703454h-51.760742z" fill="#C4C4C4" p-id="39683"></path></svg>