<?xml version="1.0" standalone="no"?><!DOCTYPE svg PUBLIC "-//W3C//DTD SVG 1.1//EN" "http://www.w3.org/Graphics/SVG/1.1/DTD/svg11.dtd"><svg t="1734321290320" class="icon" viewBox="0 0 1070 1024" version="1.1" xmlns="http://www.w3.org/2000/svg" p-id="128542" xmlns:xlink="http://www.w3.org/1999/xlink" width="208.984375" height="200"><path d="M1045.299065 0H25.010585C11.26109 0 0 11.26109 0 25.010585v4.175461c0 13.749495 11.26109 25.010585 25.010585 25.010585h1020.28848c13.749495 0 25.010585-11.26109 25.010585-25.010585v-4.175461c0-13.749495-11.26109-25.010585-25.010585-25.010585zM191.775938 718.052638c13.749495 0 25.010585-11.26109 25.010585-25.010585v-13.201203c0-13.791672-11.26109-25.010585-25.010585-25.010585H56.600684c-13.749495 0-24.968409 11.218913-24.968409 25.010585v13.201203c0 13.749495 11.218913 25.010585 24.968409 25.010585h135.175254zM415.985502 81.273858H54.280984c-12.526381 0-22.648709 10.164504-22.648709 22.648709v527.373285h180.008732c8.097862-23.028296 20.66642-45.508299 39.013139-66.807364 119.148235-138.380658 169.591169-391.312328 181.991021-463.47609 1.771407-10.33321-6.199926-19.738539-16.659665-19.73854zM31.590098 741.544874v258.752008c0 47.406236 33.909799 9.025742 33.909799 9.025742s33.867622-40.658017 45.128712-2.657111c11.303266 38.000906 51.961283 0 51.961283 0s27.077227-65.078133 81.273859-17.671897c54.196631 47.448412 60.185675-15.520903 60.185674-15.520903s-91.522715-110.206845-103.079039-231.927839H31.590098zM1009.997446 718.052638c13.749495 0 25.010585-11.26109 25.010586-25.010585v-13.201203c0-13.791672-11.26109-25.010585-25.010586-25.010585h-135.133078c-13.749495 0-25.010585 11.218913-25.010585 25.010585v13.201203c0 13.749495 11.26109 25.010585 25.010585 25.010585h135.133078zM1012.359323 81.273858h-361.704518c-10.501915 0-18.431072 9.40533-16.659665 19.73854 12.357675 72.163763 62.80061 325.095432 181.991021 463.47609 18.304543 21.299065 30.8731 43.779068 38.970962 66.807364h180.050909V103.922567c0-12.484204-10.164504-22.648709-22.648709-22.648709zM762.548705 973.472713s5.989044 62.969315 60.185675 15.520903c54.196631-47.406236 81.316034 17.671898 81.316034 17.671897s40.615841 38.000906 51.919107 0 45.170888 2.657111 45.170888 2.657111 33.867622 38.380493 33.867623-9.025742v-258.752008h-169.380288c-11.556324 121.720993-103.079039 231.927839-103.079039 231.927839z" p-id="128543" fill="#604fbc"></path></svg>