<?xml version="1.0" standalone="no"?><!DOCTYPE svg PUBLIC "-//W3C//DTD SVG 1.1//EN" "http://www.w3.org/Graphics/SVG/1.1/DTD/svg11.dtd"><svg t="1734316123385" class="icon" viewBox="0 0 1024 1024" version="1.1" xmlns="http://www.w3.org/2000/svg" p-id="9431" xmlns:xlink="http://www.w3.org/1999/xlink" width="200" height="200"><path d="M914.0288 106.24h-147.52l-4.8-12.8c-10.24-27.52-30.4-49.6-56.96-62.08-26.56-12.48-56.64-13.76-84.16-3.52l-141.44 51.52-9.28-10.88c-18.88-22.4-45.44-36.16-74.56-38.72-29.12-2.56-57.6 6.4-80.32 25.28L39.4688 286.08c-22.4 18.88-36.48 45.44-39.04 74.56-2.56 29.12 6.4 57.92 25.28 80.32l435.2 518.72c18.88 22.4 45.44 36.16 74.56 38.72h1.28c5.12 2.56 10.56 4.48 16.64 4.48h360.32c60.48 0 110.08-49.28 110.08-110.08V216c0.32-60.48-48.96-109.76-109.76-109.76z m0 73.28c20.16 0 36.8 16.32 36.8 36.8v396.16L793.3888 179.52h120.64z m10.56 575.36c3.52 9.28 2.88 19.2-1.28 27.84-4.16 8.96-11.52 15.68-20.8 18.88l-144.96 52.8 134.4-112.64c7.68-6.72 14.08-14.4 19.84-22.4l12.8 35.52z m-278.4-658.56c9.28-3.2 19.2-2.88 28.16 1.28s15.68 11.52 18.88 20.8l138.24 380.16-301.76-359.68 116.48-42.56z m-564.16 297.6c-6.4-7.36-9.28-16.96-8.32-26.88s5.44-18.56 12.8-24.96l276.16-231.68c6.72-5.44 15.04-8.64 23.36-8.64h3.2c9.92 0.96 18.56 5.44 24.96 12.8l435.2 518.72c6.4 7.36 9.28 16.96 8.32 26.88-0.96 9.6-5.44 18.56-12.8 24.96l-276.16 231.68c-7.36 6.08-16.32 9.28-26.88 8.32-9.6-0.96-18.56-5.44-24.96-12.8L82.0288 393.92z m832 536h-149.44l163.2-59.52c8.64-3.2 15.68-8.96 23.04-13.76v36.48c0 20.16-16.64 36.8-36.8 36.8z" p-id="9432" fill="#13227a"></path></svg>