<?xml version="1.0" standalone="no"?><!DOCTYPE svg PUBLIC "-//W3C//DTD SVG 1.1//EN" "http://www.w3.org/Graphics/SVG/1.1/DTD/svg11.dtd"><svg t="1732526763098" class="icon" viewBox="0 0 1024 1024" version="1.1" xmlns="http://www.w3.org/2000/svg" p-id="119159" xmlns:xlink="http://www.w3.org/1999/xlink" width="200" height="200"><path d="M512 85.333c235.641 0 426.667 191.026 426.667 426.667 0 235.641-191.026 426.667-426.667 426.667C276.359 938.667 85.333 747.64 85.333 512 85.333 276.359 276.36 85.333 512 85.333z m0 64c-200.295 0-362.667 162.372-362.667 362.667 0 200.295 162.372 362.667 362.667 362.667 200.295 0 362.667-162.372 362.667-362.667 0-200.295-162.372-362.667-362.667-362.667z m127.97 176.16c20.205-12.124 46.414-5.572 58.537 14.634a42.668 42.668 0 0 1 1.727 40.73l-1.727 3.174-105.58 175.968a96 96 0 0 1-27.966 29.74l-4.962 3.188-175.968 105.58c-20.206 12.124-46.415 5.572-58.538-14.634a42.668 42.668 0 0 1-1.727-40.73l1.727-3.174 105.58-175.968a96 96 0 0 1 27.966-29.74l4.962-3.188 175.968-105.58z m-40.281 98.818l-102.76 61.642a32 32 0 0 0-9.23 8.364l-1.746 2.612-61.657 102.775 102.775-61.657a32 32 0 0 0 7.242-5.945l1.987-2.42 1.747-2.61 61.642-102.76z" fill="#2c2c2c" p-id="119160"></path></svg>