<?xml version="1.0" standalone="no"?><!DOCTYPE svg PUBLIC "-//W3C//DTD SVG 1.1//EN" "http://www.w3.org/Graphics/SVG/1.1/DTD/svg11.dtd"><svg t="1732526473543" class="icon" viewBox="0 0 1283 1024" version="1.1" xmlns="http://www.w3.org/2000/svg" p-id="2412" xmlns:xlink="http://www.w3.org/1999/xlink" width="250.5859375" height="200"><path d="M1081.621586 542.417774V444.884481c0-246.708405-200.854031-449.120594-447.525337-444.817109A440.142634 440.142634 0 0 0 202.37509 439.69062v102.615857A242.850108 242.850108 0 0 0 0.259693 792.576386C6.084237 922.645509 115.674708 1024 245.855128 1024h30.458286a0.259693 0.259693 0 0 0 0.259693-0.259693V444.736085c0-205.194615 166.945537-374.032201 371.991756-370.396499a365.833321 365.833321 0 0 1 358.858707 365.351034v584.049687a0.259693 0.259693 0 0 0 0.259693 0.259693H1043.632202a242.479118 242.479118 0 0 0 37.989384-481.508028z m-879.246496 386.460369a18.846296 18.846296 0 0 1-25.969306 17.325237 177.555854 177.555854 0 0 1-0.445188-329.327897 19.143088 19.143088 0 0 1 26.414494 17.58493zM1109.260347 945.350102a19.81087 19.81087 0 0 1-27.490365-18.215613v-291.672403a19.588276 19.588276 0 0 1 27.193573-17.993019 177.555854 177.555854 0 0 1 0.296792 327.881035z" fill="#231815" p-id="2413" data-spm-anchor-id="a313x.search_index.0.i0.5d093a81SgN1QK" class="selected"></path><path d="M456.688792 680.277688m34.131087 0l0 0q34.131088 0 34.131088 34.131088l0 166.685844q0 34.131088-34.131088 34.131088l0 0q-34.131088 0-34.131087-34.131088l0-166.685844q0-34.131088 34.131087-34.131088Z" fill="#231815" p-id="2414"></path><path d="M792.546114 680.277688a34.242385 34.242385 0 0 0-34.131088 34.131088v166.722943a34.131088 34.131088 0 0 0 68.262175 0v-166.722943a34.242385 34.242385 0 0 0-34.131087-34.131088zM632.723586 734.85033a25.264425 25.264425 0 0 0-25.190227 25.190226v92.747521a25.190227 25.190227 0 0 0 50.380454 0v-92.747521a25.264425 25.264425 0 0 0-25.190227-25.190226z" fill="#231815" p-id="2415"></path></svg>