<?xml version="1.0" standalone="no"?><!DOCTYPE svg PUBLIC "-//W3C//DTD SVG 1.1//EN" "http://www.w3.org/Graphics/SVG/1.1/DTD/svg11.dtd"><svg t="1734316223802" class="icon" viewBox="0 0 1024 1024" version="1.1" xmlns="http://www.w3.org/2000/svg" p-id="19934" xmlns:xlink="http://www.w3.org/1999/xlink" width="200" height="200"><path d="M994.925714 586.920229a344.005486 344.005486 0 0 0-26.748343-133.851429c4.154514-15.440457 17.832229-78.518857 17.832229-209.188571 0-131.935086-29.125486-204.024686-49.934629-213.686858a10.510629 10.510629 0 0 0-4.754285-1.287314 10.378971 10.378971 0 0 1 4.161828 1.287314 13.780114 13.780114 0 0 0-16.047543 3.218286l-183.676342 193.097143a563.631543 563.631543 0 0 0-224.694858-45.699657h0.592458a563.616914 563.616914 0 0 0-224.687543 45.699657L103.292343 33.3824a15.747657 15.747657 0 0 0-7.131429-3.861943h-4.161828a10.378971 10.378971 0 0 0-4.161829 1.287314C67.627886 39.175314 37.909943 111.908571 37.909943 243.214629s13.6704 193.733486 17.832228 209.824914a352.629029 352.629029 0 0 0-26.748342 133.851428v53.394286a355.232914 355.232914 0 0 0 4.154514 56.034743v0.658286a8.777143 8.777143 0 0 0 0.592457 3.861943 350.354286 350.354286 0 0 0 49.334857 133.237028 9.9328 9.9328 0 0 0 4.754286 7.080229c64.789943 95.253943 178.922057 153.183086 319.7952 153.183085h208.654628c140.880457 0 255.005257-57.929143 319.802515-153.183085a9.962057 9.962057 0 0 0 4.7616-7.080229 341.072457 341.072457 0 0 0 49.334857-133.237028 7.519086 7.519086 0 0 0 0.592457-3.218286 445.140114 445.140114 0 0 0 4.161829-56.634514v-54.0672z m-810.788571 208.5376l-74.898286 41.194057-10.7008-16.720457 76.682972-42.481372 0.592457-0.636343a8.045714 8.045714 0 0 1 3.569371-1.294628 10.298514 10.298514 0 0 1 8.916114 5.12 13.165714 13.165714 0 0 1-4.161828 14.804114z m-4.754286-86.8864H55.742171v-0.643658h-1.192228L53.394286 691.2l-0.592457-2.574629h127.173485a9.801143 9.801143 0 0 1 9.508572 10.298515 10.605714 10.605714 0 0 1-10.108343 9.654857z m30.317714-439.588572a10.042514 10.042514 0 0 1-9.508571-0.643657c-69.544229-50.848914-70.144-153.183086-70.144-153.834057a9.157486 9.157486 0 0 1 10.093714-9.033143 10.357029 10.357029 0 0 1 8.916115 10.971429c0 3.218286 1.784686 91.428571 61.820342 135.804342a9.991314 9.991314 0 0 1 4.161829 9.0112 8.974629 8.974629 0 0 1-5.346743 7.723886zM322.040686 533.504a50.944 50.944 0 1 1 47.864685-50.848914c-0.906971 27.384686-21.672229 50.848914-47.864685 50.848914z m537.951085-281.892571c61.220571-45.056 61.820343-135.160686 61.820343-135.804343a9.910857 9.910857 0 0 1 8.916115-10.971429 9.6768 9.6768 0 0 1 10.108342 9.654857c0 0.643657-0.599771 102.985143-70.151314 153.834057a8.572343 8.572343 0 0 1-9.508571 0.643658 10.298514 10.298514 0 0 1-5.346743-8.367543 12.653714 12.653714 0 0 1 4.161828-9.0112z m-249.658514 482.742857a65.872457 65.872457 0 0 1-75.490743-32.826515 65.865143 65.865143 0 0 1-75.505371 32.782629 71.533714 71.533714 0 0 1-49.334857-69.485714 9.508571 9.508571 0 1 1 19.017143 0 52.618971 52.618971 0 0 0 23.778742 46.343314 45.648457 45.648457 0 0 0 49.342172 0 52.618971 52.618971 0 0 0 23.7568-46.372571 9.508571 9.508571 0 1 1 19.017143 0 52.618971 52.618971 0 0 0 23.778743 46.343314 45.633829 45.633829 0 0 0 49.334857 0 53.9648 53.9648 0 0 0 23.778743-46.343314 9.801143 9.801143 0 0 1 9.508571-10.2912 11.871086 11.871086 0 0 1 6.531657 2.574628 10.730057 10.730057 0 0 1 2.976914 7.087543c-1.184914 33.470171-21.394286 61.783771-50.527085 70.151314z m174.123886-207.491657a46.891886 46.891886 0 0 1-48.098743 0 52.509257 52.509257 0 0 1-23.595886-44.222172 51.265829 51.265829 0 0 1 23.595886-44.214857 46.891886 46.891886 0 0 1 48.098743 0 52.5312 52.5312 0 0 1 23.595886 44.214857 53.833143 53.833143 0 0 1-23.595886 44.222172z m134.378057 309.789257l-74.890971-41.194057a10.24 10.24 0 0 1-4.161829-13.5168 8.777143 8.777143 0 0 1 12.478171-4.5056l77.275429 42.481371z m52.904229-128.080457h-123.611429a10.335086 10.335086 0 0 1 0-20.604343h126.610286z m0 0" fill="#FFC046" p-id="19935"></path></svg>