<?xml version="1.0" standalone="no"?><!DOCTYPE svg PUBLIC "-//W3C//DTD SVG 1.1//EN" "http://www.w3.org/Graphics/SVG/1.1/DTD/svg11.dtd"><svg t="1734320609520" class="icon" viewBox="0 0 1024 1024" version="1.1" xmlns="http://www.w3.org/2000/svg" p-id="110654" xmlns:xlink="http://www.w3.org/1999/xlink" width="200" height="200"><path d="M486.469033 64.94149c-263.573882 0-477.238074 213.663168-477.238074 477.23398 0 263.568766 213.664191 477.232957 477.238074 477.232957 263.564672 0 477.230911-213.664191 477.230911-477.232957C963.699944 278.604658 750.032683 64.94149 486.469033 64.94149z" fill="#da5c5c" p-id="110655"></path><path d="M871.606521 809.593912c0 0 32.405023 89.743913 139.595276 119.662303 0 0-54.841001 37.384429-216.867138-22.437002l-17.454526-19.947299" fill="#da5c5c" p-id="110656"></path><path d="M243.549554 180.740813l55.190972-33.241064c0 0-99.090788-157.914495-178.307955-134.819508-94.339579 27.502365-66.057455 326.495929-66.057455 326.495929l63.380487-60.779244" fill="#da5c5c" p-id="110657"></path><path d="M681.253234 170.368587l-55.190972-33.242087c0 0 99.094881-157.914495 178.313071-134.819508C898.715936 29.811404 870.427673 328.801897 870.427673 328.801897l-63.380487-60.777198" fill="#da5c5c" p-id="110658"></path><path d="M103.880601 287.211682c0.662079 9.897413 1.21978 15.81519 1.21978 15.81519l187.854374-134.688525c0 0-2.718923-4.360306-7.500831-11.310598L103.880601 287.211682z" fill="#da5c5c" p-id="110659"></path></svg>