<?xml version="1.0" standalone="no"?><!DOCTYPE svg PUBLIC "-//W3C//DTD SVG 1.1//EN" "http://www.w3.org/Graphics/SVG/1.1/DTD/svg11.dtd"><svg t="1734321482478" class="icon" viewBox="0 0 1024 1024" version="1.1" xmlns="http://www.w3.org/2000/svg" p-id="145777" xmlns:xlink="http://www.w3.org/1999/xlink" width="200" height="200"><path d="M26 26m73.92 0l826.16 0q73.92 0 73.92 73.92l0 826.16q0 73.92-73.92 73.92l-826.16 0q-73.92 0-73.92-73.92l0-826.16q0-73.92 73.92-73.92Z" fill="#938BED" p-id="145778"></path><path d="M630.108 223.266h197.303c13.608 0 24.64 11.032 24.64 24.64V506.53c0 13.608-11.032 24.64-24.64 24.64a24.64 24.64 0 0 1-14.893-5.01l-68.866-52.247a24.64 24.64 0 0 0-29.785 0L645 526.16c-10.841 8.225-26.298 6.104-34.523-4.738a24.64 24.64 0 0 1-5.01-14.892V247.906c0-13.608 11.032-24.64 24.64-24.64z" fill="#FFFFFF" p-id="145779"></path><path d="M149.291 223.266m36.987 0l258.912 0q36.987 0 36.987 36.987l0 0.001q0 36.987-36.987 36.987l-258.912 0q-36.987 0-36.987-36.987l0-0.001q0-36.987 36.987-36.987Z" fill="#FFFFFF" p-id="145780"></path><path d="M149.291 482.177m36.987 0l258.912 0q36.987 0 36.987 36.987l0 0.001q0 36.987-36.987 36.987l-258.912 0q-36.987 0-36.987-36.987l0-0.001q0-36.987 36.987-36.987Z" fill="#FFFFFF" p-id="145781"></path><path d="M149.291 728.759m36.987 0l628.785 0q36.987 0 36.987 36.987l0 0.001q0 36.987-36.987 36.987l-628.785 0q-36.987 0-36.987-36.987l0-0.001q0-36.987 36.987-36.987Z" fill="#FFFFFF" p-id="145782"></path></svg>