<?xml version="1.0" standalone="no"?><!DOCTYPE svg PUBLIC "-//W3C//DTD SVG 1.1//EN" "http://www.w3.org/Graphics/SVG/1.1/DTD/svg11.dtd"><svg t="1734316271303" class="icon" viewBox="0 0 1024 1024" version="1.1" xmlns="http://www.w3.org/2000/svg" p-id="22341" xmlns:xlink="http://www.w3.org/1999/xlink" width="200" height="200"><path d="M822.854 447.997c15.15 0 27.43 12.28 27.43 27.43 0 180.69-141.67 328.3-320 337.8v73.63c0 15.15-12.28 27.43-27.43 27.43s-27.43-12.28-27.43-27.43v-75.1c-169.63-18.23-301.71-161.86-301.71-336.33 0-15.15 12.28-27.43 27.43-27.43 15 0 27.18 12.04 27.42 26.98v0.45c0.01 156.53 126.9 283.43 283.44 283.43 154.97 0 280.89-124.37 283.39-278.74l0.04-4.69c-0.01-15.15 12.27-27.43 27.42-27.43z m-310.85-329.14c106.04 0 192 85.96 192 192v182.86c0 106.04-85.96 192-192 192s-192-85.96-192-192v-182.86c0-106.04 85.96-192 192-192z m0 54.86c-75.74 0-137.14 61.4-137.14 137.14v182.86c0 75.74 61.4 137.14 137.14 137.14s137.14-61.4 137.14-137.14v-182.86c0-75.74-61.4-137.14-137.14-137.14z" p-id="22342"></path></svg>