<?xml version="1.0" standalone="no"?><!DOCTYPE svg PUBLIC "-//W3C//DTD SVG 1.1//EN" "http://www.w3.org/Graphics/SVG/1.1/DTD/svg11.dtd"><svg t="1732526988722" class="icon" viewBox="0 0 1024 1024" version="1.1" xmlns="http://www.w3.org/2000/svg" p-id="145634" xmlns:xlink="http://www.w3.org/1999/xlink" width="200" height="200"><path d="M492.8 134.4c153.6 0 281.6 128 281.6 281.6s-128 281.6-281.6 281.6-281.6-128-281.6-281.6 128-281.6 281.6-281.6m0-38.4c-179.2 0-320 140.8-320 320s140.8 320 320 320 320-140.8 320-320-140.8-320-320-320z" fill="#333333" p-id="145635"></path><path d="M409.6 332.8c-19.2 0-32 12.8-32 32v32c0 19.2 12.8 32 32 32s32-12.8 32-32v-32c0-19.2-12.8-32-32-32zM608 332.8c-19.2 0-32 12.8-32 32v32c0 19.2 12.8 32 32 32s32-12.8 32-32v-32c0-19.2-12.8-32-32-32zM774.4 902.4c-6.4 0-12.8-6.4-19.2-12.8-51.2-96-147.2-153.6-262.4-153.6-108.8 0-211.2 57.6-262.4 153.6-6.4 6.4-19.2 12.8-25.6 6.4-6.4 0-12.8-12.8-6.4-19.2C256 768 371.2 704 492.8 704c128 0 236.8 64 294.4 172.8 6.4 6.4 0 19.2-12.8 25.6 6.4 0 0 0 0 0z" fill="#333333" p-id="145636"></path></svg>