<?xml version="1.0" standalone="no"?><!DOCTYPE svg PUBLIC "-//W3C//DTD SVG 1.1//EN" "http://www.w3.org/Graphics/SVG/1.1/DTD/svg11.dtd"><svg t="1734320503801" class="icon" viewBox="0 0 1024 1024" version="1.1" xmlns="http://www.w3.org/2000/svg" p-id="106460" xmlns:xlink="http://www.w3.org/1999/xlink" width="200" height="200"><path d="M819.24096 1024a122.88 122.88 0 0 1-122.88-122.88V552.96a122.88 122.88 0 0 1 122.88-122.88h81.92a122.88 122.88 0 0 1 122.88 122.88v348.16a122.88 122.88 0 0 1-122.88 122.88z m-348.16 0a122.88 122.88 0 0 1-122.88-122.88V122.88a122.88 122.88 0 0 1 122.88-122.88h81.92a122.88 122.88 0 0 1 122.88 122.88v778.24a122.88 122.88 0 0 1-122.88 122.88z m-348.16 0a122.88 122.88 0 0 1-122.88-122.88V409.6a122.88 122.88 0 0 1 122.88-122.88h81.92a122.88 122.88 0 0 1 122.88 122.88v491.52a122.88 122.88 0 0 1-122.88 122.88z" p-id="106461" fill="#da5c5c"></path></svg>