<?xml version="1.0" standalone="no"?><!DOCTYPE svg PUBLIC "-//W3C//DTD SVG 1.1//EN" "http://www.w3.org/Graphics/SVG/1.1/DTD/svg11.dtd"><svg t="1734316033448" class="icon" viewBox="0 0 1024 1024" version="1.1" xmlns="http://www.w3.org/2000/svg" p-id="5412" xmlns:xlink="http://www.w3.org/1999/xlink" width="200" height="200"><path d="M217.6 473.6v307.2c0 33.1264 25.1904 60.416 57.4464 63.6928l6.5536 0.3072h460.8a64 64 0 0 0 63.6928-57.4464l0.3072-6.5536v-307.2h76.8v307.2a140.8 140.8 0 0 1-132.1984 140.544L742.4 921.6h-460.8a140.8 140.8 0 0 1-140.544-132.1984l-0.256-8.6016v-307.2h76.8z" fill="#d81e06" p-id="5413"></path><path d="M832 311.4496H192A89.6 89.6 0 0 0 102.4 401.0496v51.2c0 49.5104 40.1408 89.6 89.6 89.6h640A89.6 89.6 0 0 0 921.6 452.3008v-51.2a89.6 89.6 0 0 0-89.6-89.6z m-640 76.8h640a12.8 12.8 0 0 1 12.8 12.8v51.2a12.8 12.8 0 0 1-12.8 12.8H192a12.8 12.8 0 0 1-12.8-12.8v-51.2a12.8 12.8 0 0 1 12.8-12.8z" fill="#d81e06" p-id="5414"></path><path d="M260.7104 134.4a109.2096 109.2096 0 0 1 147.8656-6.0928l6.5536 6.0928 100.1984 100.1472c40.448 40.4992 42.496 104.96 6.0416 147.8656l-6.0416 6.6048-54.3232-54.3232a32.4096 32.4096 0 0 0 3.4304-41.8304l-3.4304-3.9936-100.1472-100.1984a32.4096 32.4096 0 0 0-49.2544 41.8304l3.3792 4.0448 100.1472 100.1472-54.272 54.272-100.1472-100.096a109.2096 109.2096 0 0 1 0-154.4704z" fill="#d81e06" p-id="5415"></path><path d="M608.8704 134.4a109.2096 109.2096 0 0 1 160.512 147.8656l-6.0928 6.6048-100.1472 100.1472-54.272-54.3232 100.1472-100.1472a32.4096 32.4096 0 0 0-41.8304-49.2544l-4.0448 3.3792-100.1472 100.1984a32.4096 32.4096 0 0 0-3.4304 41.8304l3.4304 3.9936-54.272 54.272a109.2096 109.2096 0 0 1-6.144-147.8144l6.144-6.656 100.1472-100.096z" fill="#d81e06" p-id="5416"></path></svg>