<?xml version="1.0" standalone="no"?><!DOCTYPE svg PUBLIC "-//W3C//DTD SVG 1.1//EN" "http://www.w3.org/Graphics/SVG/1.1/DTD/svg11.dtd"><svg t="1734316253165" class="icon" viewBox="0 0 1060 1024" version="1.1" xmlns="http://www.w3.org/2000/svg" p-id="21217" xmlns:xlink="http://www.w3.org/1999/xlink" width="207.03125" height="200"><path d="M706.67878813 306.95757594c-2.13333375 42.46060594-35.23636406 76.84848469-77.58787875 80.60606062-42.33939375 3.75757594-80.98181813-24.25454531-90.56969719-65.67272718a30.59393906 30.59393906 0 0 1-2.27878781-11.57575782V279.2727275c0-12.84848531-10.4242425-23.27272688-23.27272782-23.27272781-12.86060625 0-23.27272688 10.41212156-23.27272687 23.27272781v155.15151469c0 17.13939375-13.89090937 31.03030312-31.03030313 31.03030312s-31.03030312-13.89090937-31.03030312-31.03030312V274.82424219l0.23030344 0.03636375c2.14545469-42.46060594 35.23636406-76.84848469 77.58787875-80.60606063 42.33939375-3.75757594 80.99393906 24.25454531 90.58181812 65.67272719 1.49090906 3.68484844 2.26666688 7.61212125 2.27878781 11.58787875v31.03030313c0 12.86060625 10.4242425 23.27272688 23.27272688 23.27272781 12.86060625 0 23.27272688-10.41212156 23.27272781-23.27272781V116.36363656c0-17.13939375 13.89090937-31.03030312 31.03030313-31.03030312s31.03030312 13.89090937 31.03030312 31.03030312v190.63030313l-0.24242437-0.03636375z m0 0" p-id="21218" fill="#1296db"></path><path d="M768.96969687 938.66666656h-480.96969656c-141.38181844 0-256.00000031-114.61818188-256.00000031-256.00000031 0-141.38181844 114.61818188-256.00000031 256.00000031-255.99999937h480.96969656c141.38181844 0 256.00000031 114.60606094 256.00000032 255.99999937 0 141.38181844-114.61818188 256.00000031-256.00000032 256.00000031z m-356.848485-287.0303025h-54.30303v-54.30303094c0-17.13939375-13.89090937-31.03030312-31.03030312-31.03030312s-31.03030312 13.89090937-31.03030313 31.03030312v54.30303094h-54.30303c-17.13939375 0-31.03030312 13.89090937-31.03030312 31.03030219s13.89090937 31.03030312 31.03030312 31.03030312h54.30303v54.30303094c0 17.13939375 13.89090937 31.03030312 31.03030313 31.03030313s31.03030312-13.89090937 31.03030312-31.03030313v-54.30303094h54.30303c17.13939375 0 31.03030312-13.89090937 31.03030313-31.03030312s-13.89090937-31.03030312-31.03030313-31.03030219z m356.848485-100.84848562c-29.98787906 0-54.30303 24.31515187-54.30303 54.30303093s24.31515187 54.30303 54.30303 54.30303 54.30303-24.31515187 54.30303-54.30303-24.31515187-54.30303-54.30303-54.30303093z m0 155.15151562c-29.98787906 0-54.30303 24.31515187-54.30303 54.30303s24.31515187 54.30303 54.30303 54.30303094 54.30303-24.31515187 54.30303-54.30303094-24.31515187-54.30303-54.30303-54.30303z m0 0" p-id="21219" fill="#1296db"></path></svg>