<?xml version="1.0" standalone="no"?><!DOCTYPE svg PUBLIC "-//W3C//DTD SVG 1.1//EN" "http://www.w3.org/Graphics/SVG/1.1/DTD/svg11.dtd"><svg t="1734316004425" class="icon" viewBox="0 0 1024 1024" version="1.1" xmlns="http://www.w3.org/2000/svg" p-id="4334" xmlns:xlink="http://www.w3.org/1999/xlink" width="200" height="200"><path d="M694.0672 87.6544H322.56a212.48 212.48 0 0 0-212.48 212.48v428.9024A212.4288 212.4288 0 0 0 322.56 941.4656h371.6608a212.4288 212.4288 0 0 0 212.4288-212.4288V300.1344a212.48 212.48 0 0 0-212.5824-212.48z m-185.856 675.84A104.3456 104.3456 0 1 1 614.4 659.456a105.216 105.216 0 0 1-106.1888 104.2944z m253.7472-421.3248a427.776 427.776 0 0 1-239.872 71.68C377.2928 413.952 263.3216 347.7504 256 343.5008a42.24 42.24 0 0 1 43.264-72.6528 491.8272 491.8272 0 0 0 138.24 49.5616c104.3456 20.7872 197.8368 4.5056 277.9136-48.4352a42.24 42.24 0 0 1 46.5408 70.4512z" fill="#EC6B44" p-id="4335"></path><path d="M694.0672 87.6544H322.56a212.48 212.48 0 0 0-212.48 212.48v430.08a539.5456 539.5456 0 0 0 796.416-319.0272V300.1344a212.48 212.48 0 0 0-212.4288-212.48z m-185.856 675.84A104.3456 104.3456 0 1 1 614.4 659.456a105.216 105.216 0 0 1-106.1888 104.2944z m253.7472-421.3248a427.776 427.776 0 0 1-239.872 71.68C377.2928 413.952 263.3216 347.7504 256 343.5008a42.24 42.24 0 0 1 43.264-72.6528 491.8272 491.8272 0 0 0 138.24 49.5616c104.3456 20.7872 197.8368 4.5056 277.9136-48.4352a42.24 42.24 0 0 1 46.5408 70.4512z" fill="#EE7C55" p-id="4336"></path><path d="M322.56 87.6544a212.48 212.48 0 0 0-212.48 212.48v251.648a434.8928 434.8928 0 0 0 315.5456 42.3936 106.5472 106.5472 0 0 1 82.7392-39.0656 105.0624 105.0624 0 0 1 16.1792 1.3312 435.9168 435.9168 0 0 0 182.4256-183.04A430.6944 430.6944 0 0 1 522.24 413.952c-144.9472 0-258.9184-66.2016-266.24-70.4512a42.24 42.24 0 0 1 43.264-72.6528 491.8272 491.8272 0 0 0 138.24 49.5616c104.3456 20.7872 197.8368 4.5056 277.9136-48.4352a41.7792 41.7792 0 0 1 30.72-6.3488c2.816-12.9024 5.12-26.0096 6.8096-39.3728a433.8688 433.8688 0 0 0-3.4304-131.2768 213.2992 213.2992 0 0 0-55.1936-7.3216z" fill="#F19970" p-id="4337"></path><path d="M135.4752 432.0256a400.2304 400.2304 0 0 0 233.7792-41.3184A540.0576 540.0576 0 0 1 256 343.5008a42.24 42.24 0 0 1 43.264-72.6528 491.8272 491.8272 0 0 0 138.24 49.5616c8.3968 1.6896 16.7424 3.0208 24.9856 4.2496a400.7936 400.7936 0 0 0 121.6-237.0048H322.56a212.48 212.48 0 0 0-212.48 212.48v128c8.2944 1.3824 16.7936 2.816 25.3952 3.8912z" fill="#F5C295" p-id="4338"></path></svg>