<?xml version="1.0" standalone="no"?><!DOCTYPE svg PUBLIC "-//W3C//DTD SVG 1.1//EN" "http://www.w3.org/Graphics/SVG/1.1/DTD/svg11.dtd"><svg t="1732524904192" class="icon" viewBox="0 0 1024 1024" version="1.1" xmlns="http://www.w3.org/2000/svg" p-id="70265" xmlns:xlink="http://www.w3.org/1999/xlink" width="200" height="200"><path d="M768 138.666667a32 32 0 0 1 28.586667 17.706666l128 256a32 32 0 0 1-3.413334 34.005334l-384 490.666666a32 32 0 0 1-50.346666 0l-384-490.666666a32 32 0 0 1-3.413334-34.005334l128-256A32 32 0 0 1 256 138.666667z m-19.797333 64H275.754667L165.632 422.826667 512 865.365333 858.325333 422.826667l-110.122666-220.16zM725.333333 352a32 32 0 0 1 4.352 63.701333L725.333333 416H298.666667a32 32 0 0 1-4.352-63.701333L298.666667 352h426.666666z" fill="#2c2c2c" p-id="70266"></path></svg>