<?xml version="1.0" standalone="no"?><!DOCTYPE svg PUBLIC "-//W3C//DTD SVG 1.1//EN" "http://www.w3.org/Graphics/SVG/1.1/DTD/svg11.dtd"><svg t="1734318941957" class="icon" viewBox="0 0 1024 1024" version="1.1" xmlns="http://www.w3.org/2000/svg" p-id="64728" xmlns:xlink="http://www.w3.org/1999/xlink" width="200" height="200"><path d="M555.99 582m-203.93 0a203.93 203.93 0 1 0 407.86 0 203.93 203.93 0 1 0-407.86 0Z" fill="#C60022" opacity=".2" p-id="64729"></path><path d="M801.01 129.59c13.17-2.8 26.33-6.1 39.62-8.41 7.56-1.22 11.21-4.26 12.43-12.31 1.58-11.95 4.63-23.65 7.07-35.35 0.36-2.07 0.61-4.14 2.68-5.36 3.05 14.99 6.46 29.86 9.26 44.74 0.86 4.51 2.68 6.21 7.07 7.07 14.63 2.93 29.14 6.34 43.64 10.97-14.39 3.17-28.65 6.46-43.03 9.26-4.76 0.98-6.83 2.68-7.8 7.56-2.68 14.63-5.97 29.26-9.26 44.86-4.15-7.19-4.02-14.87-5.85-21.82-2.08-7.92-3.78-15.97-5-24.14-0.61-4.39-2.8-5.61-6.7-6.46-14.63-2.92-29.26-6.22-44.01-9.39 0-0.24-0.12-0.73-0.12-1.22z" fill="#C60022" opacity=".67" p-id="64730"></path><path d="M836.34 883.83c13.39-2.85 26.78-6.2 40.29-8.55 7.68-1.24 11.41-4.34 12.65-12.52 1.61-12.15 4.71-24.05 7.19-35.95 0.38-2.11 0.62-4.21 2.73-5.45 3.1 15.25 6.57 30.37 9.42 45.5 0.87 4.58 2.73 6.32 7.19 7.19 14.88 2.98 29.63 6.45 44.38 11.16-14.63 3.22-29.13 6.57-43.76 9.42-4.84 0.99-6.94 2.73-7.94 7.69-2.73 14.87-6.08 29.75-9.42 45.62-4.21-7.31-4.09-15.12-5.95-22.19-2.11-8.06-3.84-16.24-5.08-24.55-0.62-4.46-2.85-5.7-6.82-6.57-14.87-2.98-29.75-6.32-44.75-9.55-0.13-0.13-0.13-0.63-0.13-1.25z" fill="#C60022" opacity=".2" p-id="64731"></path><path d="M63.82 809.58c10.74-2.29 21.48-4.97 32.32-6.86 6.16-0.99 9.15-3.48 10.14-10.04 1.29-9.74 3.78-19.29 5.76-28.84 0.3-1.69 0.5-3.38 2.19-4.38 2.49 12.23 5.27 24.36 7.56 36.5 0.7 3.68 2.19 5.07 5.77 5.77 11.93 2.39 23.77 5.17 35.6 8.95-11.74 2.58-23.37 5.27-35.1 7.56-3.88 0.8-5.57 2.19-6.37 6.17-2.19 11.93-4.87 23.87-7.56 36.59-3.38-5.87-3.28-12.13-4.77-17.8-1.69-6.46-3.08-13.02-4.07-19.69-0.5-3.58-2.29-4.57-5.47-5.27-11.93-2.38-23.87-5.07-35.9-7.66-0.1-0.11-0.1-0.5-0.1-1z" fill="#FFA083" p-id="64732"></path><path d="M713.6 237.59c-7.6 0-14.76 3.36-19.64 9.23l-0.39 0.5C634.9 325.58 573.8 365.25 511.99 365.25c-1.29 0-2.59-0.01-3.89-0.05-102.94-2.75-180.7-115.7-181.76-117.25-4.79-6.5-12.46-10.38-20.52-10.38-14.06 0-25.5 11.44-25.5 25.5 0 4.72 1.3 9.32 4 13.69 3.71 5.54 92.26 135.81 222.25 139.38h0.19l5.3 0.09c78.7 0 153.48-46.53 222.27-138.31l0.3-0.43c2.92-4.25 4.46-9.23 4.46-14.41 0-14.05-11.43-25.49-25.49-25.49zM607.53 571.9h-18.29c0.66-1.82 1.16-3.63 1.16-5.61v-34.11c0-9.39-7.58-16.97-16.98-16.97h-11.37c-9.39 0-16.97 7.58-16.97 16.97v34.11c0 1.98 0.49 3.79 1.15 5.61h-70.7c0.66-1.82 1.15-3.63 1.15-5.61v-34.11c0-9.39-7.58-16.97-16.97-16.97h-11.37c-9.4 0-16.98 7.58-16.98 16.97v34.11c0 1.98 0.5 3.79 1.16 5.61h-18.3c-9.39 0-16.97 7.58-16.97 16.97v11.37c0 9.39 7.58 16.97 16.97 16.97h73.83v45.65h-73.83c-9.39 0-16.97 7.58-16.97 16.98v11.37c0 9.39 7.58 16.97 16.97 16.97h73.83v85.2c0 9.39 7.58 16.97 16.97 16.97h11.37c9.4 0 16.98-7.58 16.98-16.97v-85.2h73.83c9.4 0 16.98-7.58 16.98-16.97v-11.37c0-9.4-7.58-16.98-16.98-16.98h-73.83v-45.48h73.83c9.4 0 16.98-7.58 16.98-16.97v-11.38c0.49-9.39-7.25-17.13-16.65-17.13z" fill="#C60022" p-id="64733"></path><path d="M216.89 704.07c-13.9 0-25.18-11.27-25.18-25.18v-406.5c0-69.24 57.22-125.57 127.56-125.57h382.89c70.34 0 127.56 56.33 127.56 125.57 0 13.9-11.27 25.18-25.18 25.18s-25.18-11.27-25.18-25.18c0-41.47-34.63-75.22-77.21-75.22H319.28c-42.57 0-77.21 33.74-77.21 75.22V678.9c0 13.9-11.27 25.17-25.18 25.17zM702.16 955.84H319.28c-70.34 0-127.56-57.22-127.56-127.56 0-13.9 11.27-25.18 25.18-25.18 13.9 0 25.18 11.27 25.18 25.18 0 42.57 34.64 77.21 77.21 77.21h382.89c42.57 0 77.21-34.64 77.21-77.21V419.57c0-13.9 11.27-25.18 25.18-25.18s25.18 11.27 25.18 25.18v408.71c-0.02 70.34-57.25 127.56-127.59 127.56z" fill="#C60022" p-id="64734"></path><path d="M807.38 340.81m-23.2 0a23.2 23.2 0 1 0 46.4 0 23.2 23.2 0 1 0-46.4 0Z" fill="#C60022" p-id="64735"></path><path d="M215.3 754.55m-26.03 0a26.03 26.03 0 1 0 52.06 0 26.03 26.03 0 1 0-52.06 0Z" fill="#C60022" p-id="64736"></path></svg>