<?xml version="1.0" standalone="no"?><!DOCTYPE svg PUBLIC "-//W3C//DTD SVG 1.1//EN" "http://www.w3.org/Graphics/SVG/1.1/DTD/svg11.dtd"><svg t="1734319062721" class="icon" viewBox="0 0 1077 1024" version="1.1" xmlns="http://www.w3.org/2000/svg" p-id="72968" xmlns:xlink="http://www.w3.org/1999/xlink" width="210.3515625" height="200"><path d="M970.105263 0c59.284211 0 107.789474 48.505263 107.789474 107.789474v646.736842c0 59.284211-48.505263 107.789474-107.789474 107.789473H431.157895l-215.578948 161.684211v-161.684211H107.789474c-59.284211 0-107.789474-48.505263-107.789474-107.789473V107.789474C0 48.505263 48.505263 0 107.789474 0h862.315789z m-296.421052 150.905263c-10.778947 0-21.557895 0-26.947369 5.389474s-10.778947 10.778947-10.778947 21.557895-5.389474 16.168421-5.389474 26.947368l-16.168421 80.842105H522.778947l16.168421-64.673684c5.389474-21.557895 5.389474-32.336842 5.389474-37.726316 0-10.778947-5.389474-16.168421-10.778947-26.947368-5.389474 0-16.168421-5.389474-32.336842-5.389474-10.778947 0-16.168421 0-21.557895 5.389474-5.389474 5.389474-10.778947 10.778947-16.168421 21.557895 0 5.389474-5.389474 16.168421-10.778948 32.336842l-16.168421 75.452631H377.263158c-16.168421 0-32.336842 5.389474-37.726316 10.778948-5.389474 10.778947-10.778947 16.168421-10.778947 32.336842 0 10.778947 5.389474 21.557895 16.168421 26.947368 5.389474 5.389474 16.168421 10.778947 32.336842 10.778948h37.726316l-16.168421 102.4H377.263158c-16.168421 0-32.336842 5.389474-37.726316 10.778947-5.389474 5.389474-10.778947 16.168421-10.778947 26.947368 0 26.947368 16.168421 37.726316 53.894737 37.726316l-16.168421 64.673684c0 5.389474 0 10.778947-5.389474 16.168421v16.168421c0 10.778947 5.389474 21.557895 10.778947 26.947369 5.389474 5.389474 16.168421 10.778947 32.336842 10.778947s26.947368-5.389474 32.336842-10.778947 10.778947-21.557895 16.168421-43.11579l16.168422-80.842105h86.231578l-16.168421 64.673684c-5.389474 16.168421-5.389474 26.947368-5.389473 37.726316 0 10.778947 5.389474 21.557895 10.778947 26.947369s16.168421 10.778947 32.336842 10.778947c10.778947 0 21.557895 0 26.947369-5.389474s10.778947-10.778947 10.778947-16.168421 5.389474-16.168421 5.389474-32.336842l16.168421-80.842105H700.631579c16.168421 0 32.336842-5.389474 37.726316-10.778948 10.778947-5.389474 10.778947-16.168421 10.778947-26.947368s-5.389474-21.557895-10.778947-26.947368c-10.778947-5.389474-21.557895-10.778947-37.726316-10.778948h-43.11579l21.557895-102.4h21.557895c16.168421 0 32.336842-5.389474 37.726316-10.778947 10.778947-5.389474 10.778947-16.168421 10.778947-26.947369 0-26.947368-16.168421-37.726316-53.894737-37.726315l16.168421-64.673685v-10.778947-16.168421-16.168421c0-10.778947-5.389474-21.557895-10.778947-26.947368-5.389474-5.389474-16.168421-10.778947-26.947368-10.778948z m-80.842106 215.578948l-21.557894 102.4H485.052632l21.557894-102.4H592.842105z" p-id="72969" fill="#e49a23"></path></svg>