<?xml version="1.0" standalone="no"?><!DOCTYPE svg PUBLIC "-//W3C//DTD SVG 1.1//EN" "http://www.w3.org/Graphics/SVG/1.1/DTD/svg11.dtd"><svg t="1734320731790" class="icon" viewBox="0 0 1024 1024" version="1.1" xmlns="http://www.w3.org/2000/svg" p-id="122748" xmlns:xlink="http://www.w3.org/1999/xlink" width="200" height="200"><path d="M948.736 362.496h-86.528c-4.096 0-7.68 1.024-11.264 3.072l-38.912-115.712c-12.288-66.048-59.392-97.792-117.248-97.792H329.728c-66.048 0-106.496 42.496-117.248 97.792l-38.912 116.224c-3.584-2.048-7.68-3.072-11.776-3.584H75.264c-13.312 0-24.064 10.752-24.064 23.552v20.48c0 13.312 10.752 24.064 24.064 23.552l32.768 5.632c-10.752 21.504-16.384 45.056-16.384 69.12l-12.288 136.704c0 4.096 0.512 8.192 1.024 12.288-0.512 2.56-0.512 5.12-1.024 7.68v164.352c0 23.552 19.456 42.496 43.008 42.496h65.536c23.552 0 42.496-18.944 43.008-42.496V773.12h563.2v52.736c0 23.552 19.456 42.496 43.008 42.496h65.536c23.552 0 43.008-18.944 43.008-42.496v-164.352c0-2.56-0.512-5.12-1.024-7.68 0.512-4.096 0.512-8.192 1.024-12.288l-12.288-136.704c0.512-24.064-5.12-48.128-16.384-69.632l31.744-5.632c13.312 0 24.064-10.752 24.064-23.552v-20.48c0-12.288-10.752-23.04-24.064-23.04zM241.664 337.92l28.672-75.264 0.512-1.536c3.072-15.36 9.216-17.92 18.432-29.696h447.488c9.216 12.288 15.36 15.36 17.92 29.696l28.672 76.8 10.752 41.984c-2.56 30.72-39.424 54.784-70.656 54.784H301.568c-31.232 0-68.096-24.064-70.656-54.784l10.752-41.984z m19.968 357.376c-35.328-0.512-64-29.696-63.488-65.024 0.512-35.328 29.696-64 65.024-63.488 35.328 0.512 63.488 29.184 63.488 64-0.512 36.352-29.696 65.024-65.024 64.512z m501.76 0c-35.328-0.512-64-29.696-63.488-65.024 0.512-35.328 29.696-64 65.024-63.488 35.328 0.512 63.488 29.184 63.488 64-0.512 36.352-29.184 65.024-65.024 64.512z" fill="#da5c5c" p-id="122749"></path></svg>