<?xml version="1.0" standalone="no"?><!DOCTYPE svg PUBLIC "-//W3C//DTD SVG 1.1//EN" "http://www.w3.org/Graphics/SVG/1.1/DTD/svg11.dtd"><svg t="1734320713166" class="icon" viewBox="0 0 1024 1024" version="1.1" xmlns="http://www.w3.org/2000/svg" p-id="121640" xmlns:xlink="http://www.w3.org/1999/xlink" width="200" height="200"><path d="M846.315047 672.255211c71.53194-0.421994 150.622769 24.777633 86.784715 105.96543C891.108384 831.552851 777.585066 926.741441 703.67616 885.59205c-10.919838-6.163909-8.959867-24.219641 3.499949-27.155597 55.987171-12.882809 120.79921-30.37555 149.356787-82.033785-82.588776 23.242656-167.000526 44.930334-252.950253 49.832262-53.051214 2.943956-126.114132 4.904927-174.970408-26.31861-42.834365 54.879187-131.028059 33.875498-179.604339 95.331587-37.515444 47.309299-82.021785 145.581843-157.194671 120.525215-10.642842-3.499948-12.740811-17.358743-3.077955-23.514652 59.912112-37.936438 97.286559-96.868565 143.477875-148.247804-4.05494 1.542977-7.979882 3.499948-11.894824 6.163909-17.642739 11.895824-31.914527 27.0136-47.876291 40.873395-24.915631 21.417683-53.472208 40.594399-86.791714 45.073332-5.729915 0.837988-10.914838-0.421994-14.272788-5.739915-1.959971-3.35695-2.523963-6.021911-2.101969-8.532874-6.159909-2.239967-6.576903-12.456815 0.696989-14.424786 52.354224-14.134791 71.814936-58.508133 114.09331-87.481704 29.809558-20.294699 69.283974-34.862484 106.241426-38.636428 21.974674-37.938438 16.23276-82.588776 40.313403-121.5062-52.910216 1.684975-73.208915-66.769011-46.053318-111.004355 6.435905-10.501844 25.474623-7.001896 24.494637 6.7199-2.380965 33.457504 22.675664 46.754307 50.67925 53.890202 44.367343-15.393772 87.7637-10.917838 135.922986-2.373965 68.445986 12.17582 195.832099 10.352847 190.647176-90.850654-1.399979-26.871602-20.853691-85.808729-23.797648-134.105013-1.529977-0.140998-3.215952-0.69599-4.757929-1.675975-1.251981-0.847987-2.515963-1.964971-3.917942-2.802959-11.198834 0.282996-21.415683-2.380965-31.218538-10.501844-13.437801-11.336832-24.214641-25.613621-40.867394-32.474519-11.207834-4.616932-13.446801-21.273685 0-24.915631 19.034718-5.313921 38.908424-8.262878 58.086139-2.794959-20.712693-16.099761-40.593399-33.319506-59.204123-51.799232-24.223641 17.219745-60.337106 24.776633-83.155768 1.825973-7.835884-7.836884 1.959971-20.022703 11.48283-14.980778 17.775737 9.511859 37.656442 5.032925 53.33021-6.023911-6.301907-7.139894-12.594813-14.272789-18.339728-21.837677a535.851062 535.851062 0 0 1-16.935749-22.809662c-27.156598 2.372965-51.375239-12.599813-62.010082-39.485415-3.779944-9.649857 10.350847-13.708797 15.53577-6.576902 7.839884 10.926838 18.89672 19.176716 31.07154 21.416682C497.904209 141.447075 489.500333 114.013481 496.915223 86.43089c2.382965-8.391876 16.241759-9.379861 17.926735 0 4.620932 26.600606 13.991793 50.541251 26.30961 72.512925 17.499741-13.017807 15.956764-30.092554 23.100658-49.973259 3.077954-8.679871 17.359743-13.439801 22.113672-2.935957 12.040822 27.297596-6.013911 60.333106-30.929541 75.868876 7.977882 11.619828 16.794751 22.675664 26.174612 33.449505 4.479934-6.7199 7.979882-13.851795 9.372861-21.829677 2.109969-11.206834-1.672975-22.405668 1.825973-33.036511 2.652961-8.261878 12.741811-11.339832 19.176716-5.183923 21.699679 21.141687 6.998896 56.972156-11.47783 80.486808 24.632635 25.766618 51.646235 49.97726 77.270855 75.035888-20.298699-26.734604-25.62462-57.251152-25.341625-89.166679-24.916631-7.564888-35.551473-33.035511-22.396668-64.676042 2.664961-6.575903 13.438801-6.433905 13.295803 1.818973-0.279996 10.638842-1.813973 31.775529 10.222849 37.231449 1.679975-22.113672 4.899927-44.647339 6.435905-67.045007-31.213538-3.498948-48.57328-28.273581-51.651235-58.799129-0.978985-10.77384 15.958764-12.590813 18.621724-2.509963 4.337936 15.815766 15.53677 35.972467 34.146494 35.547474 0-31.209538-5.033925-61.44309-23.230656-89.024681-5.041925-7.557888 5.041925-18.055733 12.740811-12.741812 29.112569 20.862691 39.756411 51.934231 41.149391 85.395735 5.879913-7.699886 9.379861-17.078747 18.759722-21.144686 6.437905-2.794959 13.294803-0.69699 15.53477 6.305906 6.7199 20.719693-14.133791 41.289388-35.972467 51.374239-2.944956 24.353639-6.577903 47.867291-8.261878 70.543955a100.026518 100.026518 0 0 0 9.662857-4.195938c32.474519-16.936749 45.494326-41.015392 64.80504-69.845965 7.003896-10.360847 22.95966-6.447904 23.381653 6.292907 1.817973 44.931334-57.811144 90.012667-98.129546 96.731567-0.132998 0-0.417994 0-0.700989 0.140998 0.566992 28.549577 6.163909 56.129168 22.821661 83.144768 22.535666-6.577903 48.432283-4.901927 70.965949-7.274892 33.319506-3.499948 71.957934-13.162805 101.489497 7.132894 51.371239 35.416475-29.394565 99.950519-65.789026 120.245218 5.318921 53.899202 23.65665 102.188486 35.13448 157.479668 6.438905 31.07954 9.940853 61.313092 0.840987 88.468689" p-id="121641" fill="#da5c5c"></path></svg>