<?xml version="1.0" standalone="no"?><!DOCTYPE svg PUBLIC "-//W3C//DTD SVG 1.1//EN" "http://www.w3.org/Graphics/SVG/1.1/DTD/svg11.dtd"><svg t="1734316092649" class="icon" viewBox="0 0 1024 1024" version="1.1" xmlns="http://www.w3.org/2000/svg" p-id="8324" xmlns:xlink="http://www.w3.org/1999/xlink" width="200" height="200"><path d="M658.166847 54.361863H566.63922a54.916576 54.916576 0 0 0-109.27844 0H365.833153A73.776815 73.776815 0 0 0 292.611051 127.583965h438.223185a73.222102 73.222102 0 0 0-72.667389-73.222102z m-164.195016 0a18.305525 18.305525 0 0 1 36.056338 0z" fill="#2588C4" p-id="8325"></path><path d="M949.945829 145.889491a73.776815 73.776815 0 0 0-73.222102-73.222102h-124.810401A108.723727 108.723727 0 0 1 766.890574 127.583965v36.056338H256.554713V127.583965a107.059588 107.059588 0 0 1 14.977248-54.916576H146.72156A73.776815 73.776815 0 0 0 73.499458 145.889491v803.224268a73.222102 73.222102 0 0 0 73.222102 73.222102l739.432286 1.664139c73.222102 0 63.791983-71.00325 63.791983-107.059588z" fill="#2588C4" p-id="8326"></path><path d="M547.224269 611.848321c0 46.595883 77.105092 84.31636 173.070422 84.316359s173.070423-37.720477 173.070423-84.316359-77.105092-83.761647-173.070423-83.761647-173.070423 37.720477-173.070422 83.761647z" fill="#C7E2F3" p-id="8327"></path><path d="M720.294691 741.096425c-74.886241 0-135.904659-23.297941-162.530877-55.47129a49.92416 49.92416 0 0 0-10.539545 32.173348c0 46.595883 77.105092 87.089924 173.070422 87.089924s173.070423-37.720477 173.070423-87.089924c0-12.203684-4.992416-20.524377-10.539545-32.173348-26.626219 32.173348-87.644637 55.471289-162.530878 55.47129z" fill="#C7E2F3" p-id="8328"></path><path d="M720.294691 845.937161c-74.886241 0-135.904659-23.297941-162.530877-55.471289a44.931744 44.931744 0 0 0-10.539545 32.173348c0 46.595883 77.105092 87.089924 173.070422 87.089924s173.070423-37.720477 173.070423-87.089924c0-12.203684-4.992416-20.524377-10.539545-32.173348-26.626219 32.173348-87.644637 55.471289-162.530878 55.471289z" fill="#C7E2F3" p-id="8329"></path><path d="M165.581798 273.473456m33.282774 0l606.301192 0q33.282774 0 33.282773 33.282774l0-0.166414q0 33.282774-33.282773 33.282773l-606.301192 0q-33.282774 0-33.282774-33.282773l0 0.166414q0-33.282774 33.282774-33.282774Z" fill="#C7E2F3" p-id="8330"></path><path d="M165.581798 452.091008m33.282774 0l260.160347 0q33.282774 0 33.282773 33.282773l0-0.166414q0 33.282774-33.282773 33.282774l-260.160347 0q-33.282774 0-33.282774-33.282774l0 0.166414q0-33.282774 33.282774-33.282773Z" fill="#C7E2F3" p-id="8331"></path><path d="M165.581798 630.708559m33.282774 0l189.711809 0q33.282774 0 33.282774 33.282774l0-0.166414q0 33.282774-33.282774 33.282773l-189.711809 0q-33.282774 0-33.282774-33.282773l0 0.166414q0-33.282774 33.282774-33.282774Z" fill="#C7E2F3" p-id="8332"></path><path d="M165.581798 809.326111m33.282774 0l189.711809 0q33.282774 0 33.282774 33.282773l0-0.166414q0 33.282774-33.282774 33.282774l-189.711809 0q-33.282774 0-33.282774-33.282774l0 0.166414q0-33.282774 33.282774-33.282773Z" fill="#C7E2F3" p-id="8333"></path></svg>